<svg xmlns="http://www.w3.org/2000/svg" viewBox="0 0 480 330" role="img" aria-labelledby="title">
  <title id="title">Illustration of a gentle cleanser bottle</title>
  <defs>
    <linearGradient id="bg" x1="0" y1="0" x2="1" y2="1">
      <stop stop-color="#e4f1e6"/>
      <stop offset="1" stop-color="#c8e2d0"/>
    </linearGradient>
    <linearGradient id="bottle" x1="0" y1="0" x2="1" y2="1">
      <stop stop-color="#fff"/>
      <stop offset="1" stop-color="#e8f4ed"/>
    </linearGradient>
  </defs>
  <rect width="480" height="330" rx="28" fill="url(#bg)"/>
  <circle cx="370" cy="67" r="86" fill="#fff" opacity=".28"/>
  <path d="M52 279c57-48 107-45 159-15 54 31 113 29 217-19v85H52z" fill="#a9cfb5" opacity=".48"/>
  <ellipse cx="239" cy="282" rx="94" ry="13" fill="#608b70" opacity=".18"/>
  <rect x="195" y="92" width="90" height="29" rx="8" fill="#347d5a"/>
  <rect x="221" y="68" width="38" height="27" rx="7" fill="#2b674d"/>
  <path d="M188 118h104v124c0 15-12 27-27 27h-50c-15 0-27-12-27-27z" fill="url(#bottle)" stroke="#c7d9cb" stroke-width="3"/>
  <path d="M201 160h78" stroke="#bed9c5" stroke-width="2"/>
  <circle cx="240" cy="178" r="17" fill="#deeee1"/>
  <path d="M240 188c-12-11-8-21 0-25 8 4 12 14 0 25zm0 0v-14" fill="none" stroke="#48815c" stroke-width="2" stroke-linecap="round"/>
  <text x="240" y="215" fill="#285c43" font-family="Arial,sans-serif" font-size="12" font-weight="700" text-anchor="middle">GENTLE</text>
  <text x="240" y="230" fill="#668171" font-family="Arial,sans-serif" font-size="9" letter-spacing="1" text-anchor="middle">FACE CLEANSER</text>
  <path d="M137 204c10-12 19-13 29 0-10 13-19 12-29 0zm177-66c8-10 16-10 24 0-8 10-16 10-24 0z" fill="#fff" opacity=".75"/>
</svg>
